<svg width="17" height="21" viewBox="0 0 17 21" fill="none" xmlns="http://www.w3.org/2000/svg">
<path d="M11.44 3.69C11.8181 3.25428 12.1063 2.74817 12.2882 2.20074C12.4701 1.6533 12.5421 1.07533 12.5 0.5C11.3394 0.593687 10.262 1.13956 9.50003 2.02C9.13513 2.44198 8.85861 2.93288 8.68684 3.46364C8.51507 3.99441 8.45155 4.55424 8.50003 5.11C9.06618 5.11472 9.62582 4.9891 10.1356 4.74286C10.6454 4.49662 11.0918 4.13637 11.44 3.69ZM13.96 11.13C13.9667 10.3637 14.1686 9.61182 14.5465 8.9452C14.9244 8.27859 15.466 7.71926 16.12 7.32C15.7073 6.72524 15.1616 6.23483 14.5263 5.88767C13.891 5.54052 13.1835 5.34615 12.46 5.32C10.9 5.16 9.46003 6.23 8.63003 6.23C7.80003 6.23 6.63003 5.34 5.33003 5.36C4.48016 5.388 3.65205 5.63578 2.92648 6.07919C2.20091 6.52259 1.60264 7.14648 1.19003 7.89C-0.569966 10.95 0.740034 15.5 2.50003 17.97C3.30003 19.18 4.30003 20.55 5.62003 20.5C6.94003 20.45 7.37003 19.68 8.90003 19.68C10.43 19.68 10.9 20.5 12.2 20.47C13.5 20.44 14.42 19.23 15.26 18.02C15.8551 17.1415 16.3199 16.1816 16.64 15.17C15.8475 14.832 15.1714 14.2693 14.6951 13.5513C14.2188 12.8333 13.9633 11.9916 13.96 11.13Z" fill="#1E2238"/>
</svg>
