<svg xmlns="http://www.w3.org/2000/svg" xmlns:xlink="http://www.w3.org/1999/xlink" width="500" zoomAndPan="magnify" viewBox="0 0 375 135.000003" height="180" preserveAspectRatio="xMidYMid meet" version="1.0"><defs><g/><clipPath id="9fbddd2157"><path d="M 1.378906 0 L 373.621094 0 L 373.621094 134.007812 L 1.378906 134.007812 Z M 1.378906 0 " clip-rule="nonzero"/></clipPath><clipPath id="2895abd9ed"><path d="M 360.308594 6.386719 C 364.113281 6.386719 367.234375 9.511719 367.234375 13.3125 L 367.234375 120.972656 C 367.234375 124.773438 364.113281 127.898438 360.308594 127.898438 L 14.691406 127.898438 C 10.886719 127.898438 7.765625 124.773438 7.765625 120.972656 L 7.765625 13.3125 C 7.765625 9.511719 10.886719 6.386719 14.691406 6.386719 L 360.308594 6.386719 M 360.308594 0 L 14.691406 0 C 7.355469 0 1.378906 5.976562 1.378906 13.3125 L 1.378906 120.972656 C 1.378906 128.308594 7.355469 134.285156 14.691406 134.285156 L 360.308594 134.285156 C 367.644531 134.285156 373.621094 128.308594 373.621094 120.972656 L 373.621094 13.3125 C 373.621094 5.976562 367.644531 0 360.308594 0 " clip-rule="nonzero"/></clipPath></defs><g clip-path="url(#9fbddd2157)"><g clip-path="url(#2895abd9ed)"><path fill="#222222" d="M 1.378906 0 L 373.621094 0 L 373.621094 134.496094 L 1.378906 134.496094 Z M 1.378906 0 " fill-opacity="1" fill-rule="nonzero"/></g></g><g fill="#222222" fill-opacity="1"><g transform="translate(30.7722, 101.508598)"><g><path d="M 1.761719 0 L 21.132812 0 C 15.671875 -8.804688 13.472656 -16.378906 13.472656 -22.804688 C 13.472656 -42.085938 32.929688 -50.804688 40.855469 -50.804688 C 42.527344 -50.804688 44.464844 -50.453125 44.464844 -48.425781 C 44.464844 -42.617188 25.007812 -33.105469 25.007812 -15.847656 C 25.007812 -10.214844 27.03125 -4.753906 30.023438 0 L 52.125 0 C 46.664062 -8.804688 44.550781 -16.378906 44.550781 -22.804688 C 44.550781 -42.085938 63.921875 -50.804688 71.847656 -50.804688 C 73.519531 -50.804688 75.457031 -50.453125 75.457031 -48.425781 C 75.457031 -42.617188 56 -33.105469 56 -15.847656 C 56 -11.183594 57.40625 -5.898438 61.019531 0 L 86.023438 0 C 81.886719 -9.949219 80.035156 -21.042969 80.035156 -31.960938 C 80.035156 -44.113281 82.324219 -56.175781 86.023438 -66.390625 C 83.117188 -67.003906 78.363281 -67.445312 74.402344 -67.445312 C 63.660156 -67.445312 53.09375 -60.578125 50.363281 -50.011719 L 48.25 -50.011719 C 49.132812 -66.917969 32.667969 -67.445312 19.722656 -67.445312 C 13.648438 -67.445312 7.925781 -67.09375 1.761719 -66.390625 C 5.898438 -56.4375 7.75 -45.34375 7.75 -34.425781 C 7.75 -22.277344 5.460938 -10.214844 1.761719 0 Z M 1.761719 0 "/></g></g></g><g fill="#222222" fill-opacity="1"><g transform="translate(118.643528, 101.508598)"><g><path d="M 0.175781 -62.164062 C 0.175781 -57.671875 4.492188 -54.589844 11.09375 -54.589844 C 17.609375 -54.589844 21.925781 -57.671875 21.925781 -62.164062 C 21.925781 -66.566406 17.609375 -69.558594 11.09375 -69.558594 C 4.492188 -69.558594 0.175781 -66.566406 0.175781 -62.164062 Z M 1.320312 0 L 20.691406 0 C 11.886719 -16.730469 13.648438 -34.601562 20.691406 -49.570312 L 1.320312 -49.570312 C 10.214844 -32.84375 8.453125 -14.96875 1.320312 0 Z M 1.320312 0 "/></g></g></g><g fill="#222222" fill-opacity="1"><g transform="translate(140.74343, 101.508598)"><g><path d="M 1.496094 0 L 20.867188 0 C 12.0625 -21.132812 13.824219 -49.21875 20.867188 -68.589844 L 1.496094 -68.589844 C 10.300781 -47.457031 8.539062 -19.371094 1.496094 0 Z M 1.496094 0 "/></g></g></g><g fill="#222222" fill-opacity="1"><g transform="translate(163.107473, 101.508598)"><g><path d="M 49.484375 -68.589844 L 32.136719 -68.589844 L 34.867188 -40.0625 L 33.546875 -40.0625 C 30.199219 -49.132812 23.773438 -50.453125 19.988281 -50.453125 C 8.894531 -50.453125 1.320312 -41.558594 1.320312 -25.710938 C 1.320312 -6.78125 9.507812 1.054688 17.523438 1.054688 C 25.445312 1.054688 29.410156 -5.898438 31.875 -13.03125 L 33.195312 -12.941406 C 32.667969 -8.980469 31.523438 -4.667969 29.9375 0 L 49.484375 0 C 40.679688 -21.132812 42.441406 -49.21875 49.484375 -68.589844 Z M 17.609375 -30.023438 C 25.183594 -35.21875 31.34375 -37.332031 35.308594 -37.332031 C 37.507812 -37.332031 39.003906 -36.714844 39.710938 -35.570312 C 41.558594 -32.667969 38.390625 -26.589844 28.085938 -19.457031 C 20.515625 -14.265625 14.351562 -12.152344 10.390625 -12.152344 C 8.1875 -12.152344 6.691406 -12.765625 5.988281 -13.910156 C 4.136719 -16.816406 7.308594 -22.980469 17.609375 -30.023438 Z M 17.609375 -30.023438 "/></g></g></g><g fill="#222222" fill-opacity="1"><g transform="translate(214.086931, 101.508598)"><g><path d="M 1.496094 0 L 18.929688 0 C 8.804688 -16.730469 20.164062 -34.691406 32.753906 -34.691406 C 33.8125 -34.691406 34.957031 -34.515625 36.011719 -34.25 L 36.011719 -49.570312 C 33.8125 -50.277344 31.875 -50.628906 30.113281 -50.628906 C 18.226562 -50.628906 18.136719 -34.601562 16.554688 -27.472656 L 15.144531 -27.648438 L 18.84375 -49.570312 L 1.496094 -49.570312 C 8.539062 -30.199219 8.539062 -19.371094 1.496094 0 Z M 1.496094 0 "/></g></g></g><g fill="#222222" fill-opacity="1"><g transform="translate(250.538574, 101.508598)"><g><path d="M 5.898438 -15.585938 C 5.898438 -19.28125 10.742188 -25.886719 20.957031 -31.960938 C 25.535156 -34.601562 31.433594 -36.101562 34.78125 -36.101562 C 36.101562 -36.101562 37.070312 -35.925781 37.332031 -35.394531 C 38.917969 -32.753906 31.082031 -25.621094 20.425781 -25.621094 L 20.425781 -22.980469 C 31.082031 -22.980469 37.859375 -28.96875 40.148438 -34.339844 C 40.148438 -40.589844 38.742188 -46.488281 36.714844 -49.570312 C 33.019531 -50.277344 29.144531 -50.628906 26.238281 -50.628906 C 9.421875 -50.628906 1.320312 -37.421875 1.320312 -24.390625 C 1.320312 -5.105469 17.167969 1.054688 29.144531 1.054688 C 33.195312 1.054688 37.332031 0.527344 41.382812 -0.265625 L 41.382812 -17.433594 C 39.183594 -15.671875 24.300781 -11.183594 14.527344 -11.183594 C 9.507812 -11.183594 5.898438 -12.328125 5.898438 -15.585938 Z M 5.898438 -15.585938 "/></g></g></g><g fill="#222222" fill-opacity="1"><g transform="translate(293.241588, 101.508598)"><g><path d="M 49.484375 -68.589844 L 32.136719 -68.589844 L 34.867188 -40.0625 L 33.546875 -40.0625 C 30.199219 -49.132812 23.773438 -50.453125 19.988281 -50.453125 C 8.894531 -50.453125 1.320312 -41.558594 1.320312 -25.710938 C 1.320312 -6.78125 9.507812 1.054688 17.523438 1.054688 C 25.445312 1.054688 29.410156 -5.898438 31.875 -13.03125 L 33.195312 -12.941406 C 32.667969 -8.980469 31.523438 -4.667969 29.9375 0 L 49.484375 0 C 40.679688 -21.132812 42.441406 -49.21875 49.484375 -68.589844 Z M 17.609375 -30.023438 C 25.183594 -35.21875 31.34375 -37.332031 35.308594 -37.332031 C 37.507812 -37.332031 39.003906 -36.714844 39.710938 -35.570312 C 41.558594 -32.667969 38.390625 -26.589844 28.085938 -19.457031 C 20.515625 -14.265625 14.351562 -12.152344 10.390625 -12.152344 C 8.1875 -12.152344 6.691406 -12.765625 5.988281 -13.910156 C 4.136719 -16.816406 7.308594 -22.980469 17.609375 -30.023438 Z M 17.609375 -30.023438 "/></g></g></g></svg>